<?xml version="1.0" standalone="no"?>
<!DOCTYPE svg PUBLIC "-//W3C//DTD SVG 20010904//EN"
 "http://www.w3.org/TR/2001/REC-SVG-20010904/DTD/svg10.dtd">
<svg version="1.0" xmlns="http://www.w3.org/2000/svg"
 width="16.000000pt" height="16.000000pt" viewBox="0 0 16.000000 16.000000"
 preserveAspectRatio="xMidYMid meet">
<metadata>
Created by potrace 1.11, written by Peter Selinger 2001-2013
</metadata>
<g transform="translate(0.000000,16.000000) scale(0.000800,-0.000800)"
fill="#000000" stroke="none">
<path d="M17178 13345 c-1 -1 -93 -6 -203 -9 -194 -6 -238 -9 -355 -21 -107
-11 -240 -29 -300 -40 -14 -3 -40 -7 -58 -10 -18 -3 -65 -12 -105 -21 -39 -8
-83 -18 -97 -20 -40 -8 -236 -64 -298 -85 -31 -11 -64 -22 -72 -24 -35 -8
-203 -81 -300 -129 -166 -83 -315 -179 -449 -291 -34 -28 -169 -163 -206 -205
-207 -239 -370 -609 -411 -935 -3 -27 -8 -52 -9 -55 -5 -9 -17 -218 -17 -320
-1 -90 7 -206 17 -260 3 -13 7 -42 10 -63 4 -22 10 -50 15 -63 5 -13 8 -24 5
-24 -6 0 50 -160 76 -215 92 -199 250 -392 423 -519 104 -77 175 -126 182
-126 3 0 18 -8 32 -19 96 -67 362 -189 707 -326 298 -117 423 -170 535 -228
348 -179 494 -365 494 -627 -1 -278 -151 -485 -444 -611 -79 -34 -230 -80
-305 -94 -16 -2 -39 -7 -50 -9 -11 -2 -42 -7 -68 -10 -27 -4 -57 -9 -67 -11
-132 -25 -633 -25 -845 0 -16 2 -55 6 -85 10 -46 5 -277 45 -345 59 -11 3 -72
19 -135 36 -63 17 -131 34 -150 39 -48 12 -190 65 -267 101 -36 17 -67 30 -70
30 -2 0 -32 16 -65 35 -33 20 -61 35 -63 33 -2 -3 -145 -473 -170 -558 -8 -25
-23 -76 -35 -115 -12 -38 -27 -90 -34 -115 -7 -25 -32 -106 -55 -180 -23 -74
-56 -179 -72 -234 -17 -54 -27 -102 -22 -106 7 -7 226 -75 272 -85 9 -2 79
-19 156 -39 189 -47 536 -116 655 -130 25 -3 54 -7 65 -10 11 -2 49 -7 85 -11
36 -4 74 -9 85 -11 11 -2 43 -6 70 -8 28 -3 75 -7 105 -10 319 -32 692 -36
1010 -11 124 10 251 23 290 30 14 2 45 7 70 10 160 21 434 78 603 127 624 179
1085 487 1360 908 49 76 157 279 157 296 0 3 6 20 14 37 36 79 96 307 112 422
3 28 8 58 10 68 17 91 23 370 11 517 -36 441 -242 822 -590 1094 -237 185
-456 296 -1061 540 -408 165 -578 257 -698 377 -62 63 -117 159 -135 239 -9
37 -4 173 7 222 69 293 362 442 935 475 212 12 614 6 700 -11 11 -2 45 -7 75
-10 62 -7 94 -12 165 -26 28 -6 59 -12 70 -14 137 -27 392 -104 520 -157 17
-7 32 -13 35 -14 3 -1 16 -6 30 -12 120 -51 110 -48 110 -31 0 6 21 74 46 152
25 78 47 146 48 151 1 6 14 46 28 90 45 136 162 499 164 510 1 6 23 75 49 155
68 211 67 209 60 220 -3 5 -12 10 -19 10 -7 0 -30 9 -52 19 -119 57 -474 146
-709 176 -16 2 -52 7 -80 11 -27 3 -57 8 -65 9 -8 1 -46 6 -85 9 -38 4 -88 9
-110 11 -196 19 -260 23 -565 30 -135 4 -250 8 -257 10 -6 2 -13 2 -15 0z"/>
<path d="M2046 13208 c-10 -47 -37 -174 -40 -193 -3 -11 -16 -73 -30 -137 -14
-64 -27 -127 -30 -140 -2 -13 -28 -131 -56 -263 -28 -132 -54 -251 -56 -264
-3 -12 -11 -51 -19 -85 -8 -33 -16 -73 -19 -89 -3 -15 -7 -35 -10 -45 -3 -9
-7 -28 -10 -42 -2 -14 -12 -61 -21 -105 -9 -44 -19 -91 -21 -105 -3 -14 -7
-33 -10 -42 -3 -9 -7 -27 -9 -40 -5 -26 -23 -110 -31 -148 -3 -14 -7 -36 -10
-50 -3 -14 -14 -63 -24 -110 -10 -47 -21 -96 -23 -110 -3 -14 -16 -77 -30
-140 -15 -63 -29 -131 -32 -150 -3 -19 -10 -51 -15 -70 -5 -19 -11 -46 -14
-60 -2 -14 -20 -99 -40 -190 -19 -91 -37 -176 -40 -190 -5 -25 -94 -441 -101
-470 -5 -22 -45 -212 -50 -241 -3 -13 -14 -67 -26 -119 -11 -52 -27 -126 -35
-165 -8 -38 -21 -97 -29 -130 -8 -33 -17 -76 -20 -95 -3 -19 -15 -73 -25 -120
-10 -47 -22 -101 -25 -120 -3 -19 -8 -43 -11 -52 -3 -9 -7 -25 -9 -35 -2 -10
-15 -74 -30 -143 -14 -69 -28 -136 -31 -149 -3 -13 -20 -94 -39 -180 -19 -86
-36 -168 -39 -184 -3 -15 -7 -35 -10 -45 -3 -9 -7 -28 -10 -42 -2 -14 -23
-113 -46 -220 -23 -107 -44 -206 -46 -219 -3 -12 -11 -51 -19 -85 -8 -33 -16
-72 -18 -86 -4 -22 -53 -250 -62 -290 -16 -69 -95 -449 -95 -456 0 -8 1617
-11 1625 -2 1 1 5 21 9 43 3 22 24 128 46 235 22 107 43 209 46 225 3 17 14
75 26 130 11 55 22 109 23 120 2 11 11 56 20 100 10 44 19 89 20 100 2 11 13
65 24 120 12 55 24 111 26 125 3 14 21 106 41 205 20 99 38 189 40 200 2 11 6
31 9 45 3 14 7 34 9 45 2 11 20 99 40 195 19 96 37 186 40 200 2 14 7 36 10
50 3 14 8 36 10 50 4 24 31 162 40 205 33 162 56 277 61 305 3 19 10 51 15 70
5 19 11 52 14 72 3 21 15 79 26 130 10 51 21 104 24 118 2 14 7 36 10 50 3 14
8 36 10 50 2 14 21 106 41 205 20 99 39 191 42 205 5 31 153 766 160 800 3 14
6 31 6 38 2 60 68 -118 137 -373 4 -16 33 -111 63 -210 30 -99 92 -301 137
-450 178 -590 273 -903 290 -960 19 -65 172 -568 197 -649 8 -27 17 -57 19
-65 2 -9 26 -90 55 -181 28 -91 63 -208 79 -260 24 -81 173 -575 200 -665 16
-52 57 -186 88 -290 17 -55 48 -154 69 -219 l38 -119 1010 1 c556 0 1037 1
1071 1 l60 1 18 88 c9 48 19 96 21 107 3 11 9 43 15 70 10 47 13 65 25 118 3
12 11 54 20 92 45 216 72 341 79 373 2 9 18 82 35 162 32 152 110 523 116 552
2 9 33 157 70 330 37 172 68 320 70 328 5 19 44 206 49 234 2 11 14 66 26 121
11 55 34 161 50 235 16 74 31 146 34 160 3 14 7 34 9 45 21 93 148 690 152
716 3 19 12 61 20 94 8 33 29 128 45 210 17 83 33 159 36 170 3 11 9 40 14 65
12 63 107 510 126 595 9 39 27 124 40 190 14 66 27 127 29 136 27 127 45 210
49 234 3 17 19 93 36 170 17 77 44 203 60 280 16 77 40 193 54 258 14 65 28
128 30 140 2 12 11 51 20 87 9 36 16 68 16 73 0 4 -367 7 -815 7 -448 0 -815
-4 -815 -8 0 -5 -23 -118 -50 -253 -28 -134 -52 -255 -55 -269 -3 -14 -7 -36
-10 -50 -5 -26 -11 -56 -21 -105 -3 -16 -21 -104 -39 -195 -19 -91 -36 -176
-39 -190 -2 -14 -7 -36 -10 -50 -3 -14 -8 -36 -10 -50 -2 -14 -11 -59 -20
-100 -8 -41 -17 -86 -20 -100 -2 -14 -21 -106 -41 -205 -21 -99 -39 -189 -41
-200 -2 -11 -22 -110 -45 -220 -22 -110 -42 -211 -45 -225 -2 -14 -7 -36 -10
-50 -3 -14 -8 -34 -10 -45 -2 -11 -13 -67 -25 -124 -11 -57 -23 -116 -25 -130
-3 -14 -11 -53 -19 -86 -7 -33 -16 -76 -19 -95 -3 -19 -12 -64 -20 -100 -8
-36 -17 -78 -20 -95 -2 -16 -18 -97 -36 -180 -17 -82 -33 -161 -35 -175 -3
-14 -7 -38 -11 -55 -3 -16 -14 -70 -24 -120 -11 -49 -21 -101 -24 -115 -2 -14
-7 -36 -10 -50 -3 -14 -8 -36 -10 -50 -4 -26 -15 -78 -71 -350 -19 -91 -36
-176 -39 -190 -2 -14 -7 -36 -10 -50 -3 -14 -8 -36 -10 -50 -3 -14 -9 -49 -15
-79 -6 -29 -11 -55 -11 -57 0 -12 -19 -1 -24 14 -5 21 -30 105 -97 327 -28 94
-52 177 -54 185 -17 62 -27 98 -55 190 -17 58 -33 112 -35 120 -2 8 -26 89
-53 180 -48 158 -116 390 -314 1060 -49 168 -110 373 -134 455 -25 83 -46 157
-49 165 -2 8 -20 69 -40 135 -19 66 -37 127 -40 135 -5 20 -77 264 -108 370
-14 47 -44 148 -67 225 -23 77 -55 185 -71 240 -37 123 -58 195 -63 215 -6 22
-105 357 -120 405 l-13 40 -1076 3 -1077 2 -4 -22z"/>
<path d="M8696 13213 c-3 -10 -7 -35 -11 -57 -3 -21 -7 -42 -10 -46 -2 -4 -6
-22 -9 -41 -2 -19 -14 -78 -26 -133 -12 -54 -23 -108 -26 -120 -15 -79 -40
-200 -64 -316 -16 -74 -31 -146 -34 -160 -3 -14 -7 -36 -10 -50 -3 -14 -13
-59 -21 -100 -8 -41 -18 -86 -20 -100 -3 -14 -10 -45 -15 -70 -13 -65 -18 -89
-30 -145 -6 -27 -13 -61 -16 -75 -3 -14 -7 -36 -10 -50 -3 -14 -12 -56 -20
-95 -8 -38 -34 -167 -59 -285 -24 -118 -51 -249 -60 -290 -13 -59 -93 -446
-229 -1104 -3 -11 -14 -66 -25 -121 -11 -55 -38 -188 -61 -295 -43 -206 -106
-508 -114 -550 -2 -14 -7 -32 -10 -40 -3 -8 -7 -32 -10 -52 -3 -21 -11 -59
-17 -85 -6 -27 -13 -59 -15 -73 -3 -14 -19 -88 -35 -165 -16 -77 -32 -153 -35
-170 -2 -16 -7 -37 -9 -45 -2 -8 -7 -31 -10 -50 -3 -19 -11 -55 -16 -80 -6
-25 -12 -54 -15 -65 -2 -11 -6 -31 -9 -45 -3 -14 -7 -34 -9 -45 -4 -20 -47
-222 -51 -240 -1 -9 -9 -45 -21 -105 -1 -8 -9 -47 -18 -85 -8 -39 -17 -82 -20
-95 -2 -14 -39 -193 -82 -397 -43 -205 -75 -376 -71 -379 4 -5 827 -9 1717 -9
0 0 33 156 36 170 2 11 6 31 9 45 3 14 7 34 10 45 13 65 75 364 79 385 2 14
11 55 20 91 8 37 17 78 20 90 2 13 16 83 31 154 15 72 29 141 31 155 2 14 9
45 14 70 6 25 13 56 16 70 7 33 32 159 38 190 3 14 12 57 20 95 9 39 18 81 20
95 3 14 17 81 31 150 15 69 49 233 76 365 27 132 51 247 54 255 2 8 7 29 9 45
6 33 23 119 30 150 2 11 9 39 14 63 5 23 8 42 6 42 -3 0 0 8 5 18 9 16 66 17
1014 17 553 0 1008 -3 1011 -5 3 -3 -1 -33 -9 -66 -8 -34 -16 -72 -19 -86 -3
-20 -23 -118 -50 -253 -3 -11 -12 -56 -21 -100 -9 -44 -18 -87 -20 -95 -2 -8
-11 -51 -20 -95 -9 -44 -18 -89 -21 -100 -2 -11 -6 -31 -9 -45 -3 -14 -7 -34
-9 -45 -3 -11 -19 -90 -36 -175 -18 -85 -34 -162 -35 -170 -2 -8 -26 -125 -54
-260 -29 -135 -54 -255 -56 -267 -3 -13 -8 -35 -11 -50 -3 -15 -28 -136 -55
-268 -48 -232 -63 -302 -73 -355 -3 -14 -12 -56 -20 -95 -9 -38 -18 -81 -20
-95 -5 -24 -9 -46 -22 -102 -3 -16 -2 -28 3 -29 11 0 1705 0 1719 0 9 1 23 50
48 176 3 11 19 88 36 170 17 83 37 182 45 220 8 39 30 147 50 240 19 94 38
183 41 199 3 16 6 32 8 35 2 3 7 23 10 43 3 21 17 89 31 152 13 63 27 127 29
142 3 14 17 83 32 153 14 69 27 133 29 141 2 8 21 103 44 210 22 107 49 238
60 290 11 52 22 106 25 120 3 14 17 81 31 150 14 69 28 136 31 150 6 29 58
284 114 550 39 182 134 639 144 693 9 43 16 75 20 100 6 28 56 266 62 290 9
38 13 56 18 88 3 19 17 88 31 154 14 66 32 152 40 190 8 39 28 135 45 215 17
80 33 156 35 170 3 14 12 57 20 95 8 39 17 81 20 95 3 14 9 48 15 75 6 28 12
61 15 75 3 14 7 36 10 50 3 14 7 34 9 45 3 11 20 94 40 185 19 91 37 179 40
195 3 17 17 85 31 150 39 182 57 267 62 295 2 14 10 51 17 83 l13 57 -866 -2
-865 -3 -18 -85 c-10 -47 -20 -98 -23 -115 -3 -16 -8 -37 -10 -45 -2 -8 -6
-26 -9 -40 -2 -14 -21 -106 -41 -205 -20 -99 -39 -191 -41 -205 -3 -14 -21
-98 -40 -188 -19 -90 -39 -187 -45 -215 -5 -29 -11 -61 -13 -72 -17 -76 -79
-375 -82 -395 -3 -14 -11 -52 -19 -85 -7 -33 -16 -76 -19 -95 -3 -19 -19 -98
-35 -175 -17 -77 -32 -151 -35 -165 -3 -14 -9 -47 -15 -75 -6 -27 -13 -61 -16
-75 -2 -14 -14 -70 -26 -125 l-21 -100 -1017 0 c-890 0 -1016 2 -1014 15 1 8
12 62 24 120 12 58 23 114 25 125 1 11 23 119 48 240 26 121 49 234 52 250 3
17 20 102 39 190 19 88 37 176 40 195 3 19 10 51 15 70 5 19 11 49 14 65 2 17
26 129 51 250 25 121 48 231 51 245 10 49 44 218 88 430 25 118 47 227 50 243
l5 27 -864 0 c-814 0 -864 -1 -869 -17z"/>
</g>
</svg>
